HIERARCHY
ROOT joint_Root
{
	OFFSET 0.0 0.0 0.0
	CHANNELS 6 Xposition Yposition Zposition Zrotation Xrotation Yrotation 
	JOINT Hips
	{
		OFFSET -0.726466 93.3139 -2.00062
		CHANNELS 6 Xposition Yposition Zposition Zrotation Xrotation Yrotation 
		JOINT Spine
		{
			OFFSET 15.7357 0.0 0.0
			CHANNELS 6 Xposition Yposition Zposition Zrotation Xrotation Yrotation 
			JOINT Chest
			{
				OFFSET 8.98455 -0.406207 0.0
				CHANNELS 6 Xposition Yposition Zposition Zrotation Xrotation Yrotation 
				JOINT Neck
				{
					OFFSET 16.3773 0.0 0.0
					CHANNELS 6 Xposition Yposition Zposition Zrotation Xrotation Yrotation 
					JOINT Head
					{
						OFFSET 6.45672 0.0 0.0
						CHANNELS 6 Xposition Yposition Zposition Zrotation Xrotation Yrotation 
						End Site
						{
							OFFSET 0.0 0.0 0.0
						}
					}
				}
				JOINT Shoulder_L
				{
					OFFSET 12.9942 -0.242716 4.98039
					CHANNELS 6 Xposition Yposition Zposition Zrotation Xrotation Yrotation 
					JOINT UpperArm_L
					{
						OFFSET 5.34809 0.0 0.0
						CHANNELS 6 Xposition Yposition Zposition Zrotation Xrotation Yrotation 
						JOINT LowerArm_L
						{
							OFFSET 24.3286 1.87007e-05 0.0
							CHANNELS 6 Xposition Yposition Zposition Zrotation Xrotation Yrotation 
							JOINT Hand_L
							{
								OFFSET 22.2916 0.0 0.0
								CHANNELS 6 Xposition Yposition Zposition Zrotation Xrotation Yrotation 
								End Site
								{
									OFFSET 0.0 0.0 0.0
								}
							}
						}
					}
				}
				JOINT Shoulder_R
				{
					OFFSET 12.9945 -0.242716 -4.98039
					CHANNELS 6 Xposition Yposition Zposition Zrotation Xrotation Yrotation 
					JOINT UpperArm_R
					{
						OFFSET -5.34813 0.0 0.0
						CHANNELS 6 Xposition Yposition Zposition Zrotation Xrotation Yrotation 
						JOINT LowerArm_R
						{
							OFFSET -24.3289 0.000322201 0.0
							CHANNELS 6 Xposition Yposition Zposition Zrotation Xrotation Yrotation 
							JOINT Hand_R
							{
								OFFSET -22.2915 -0.000108084 0.0
								CHANNELS 6 Xposition Yposition Zposition Zrotation Xrotation Yrotation 
								End Site
								{
									OFFSET 0.0 0.0 0.0
								}
							}
						}
					}
				}
			}
		}
		JOINT UpperLeg_L
		{
			OFFSET -2.19248 -6.46944 0.0
			CHANNELS 6 Xposition Yposition Zposition Zrotation Xrotation Yrotation 
			JOINT LowerLeg_L
			{
				OFFSET 39.0811 0.0 -1.23785e-05
				CHANNELS 6 Xposition Yposition Zposition Zrotation Xrotation Yrotation 
				JOINT Foot_L
				{
					OFFSET 40.9854 0.0 -1.26872e-05
					CHANNELS 6 Xposition Yposition Zposition Zrotation Xrotation Yrotation 
					JOINT Toes_L
					{
						OFFSET 11.7543 0.0 0.0
						CHANNELS 6 Xposition Yposition Zposition Zrotation Xrotation Yrotation 
						End Site
						{
							OFFSET 0.0 0.0 0.0
						}
					}
				}
			}
		}
		JOINT UpperLeg_R
		{
			OFFSET -2.19251 6.46944 0.0
			CHANNELS 6 Xposition Yposition Zposition Zrotation Xrotation Yrotation 
			JOINT LowerLeg_R
			{
				OFFSET -39.0811 -0.00228153 -0.0401928
				CHANNELS 6 Xposition Yposition Zposition Zrotation Xrotation Yrotation 
				JOINT Foot_R
				{
					OFFSET -40.9854 0.0 0.0
					CHANNELS 6 Xposition Yposition Zposition Zrotation Xrotation Yrotation 
					JOINT Toes_R
					{
						OFFSET -11.7543 0.0 0.0
						CHANNELS 6 Xposition Yposition Zposition Zrotation Xrotation Yrotation 
						End Site
						{
							OFFSET 0.0 0.0 0.0
						}
					}
				}
			}
		}
	}
}
MOTION
Frames:	8
Frame Time:	0.0333333
0.000000 0.000000 0.000000 0.000000 0.000000 -0.000000 -1.434690 92.330500 -1.757860 87.851800 -0.110043 2.013900 15.735700 0.000005 -0.000001 82.515600 87.674700 -81.528800 8.984550 -0.406207 -0.000000 -3.148410 -0.699451 1.954840 16.377300 -0.000001 -0.000001 -5.543570 -3.737240 2.008030 6.456720 -0.000001 -0.000000 -6.350150 -2.683330 -0.536401 12.994200 -0.242716 4.980390 -84.164200 -12.899000 -65.399400 5.348090 -0.000007 -0.000001 -68.717600 -55.292600 -103.080000 24.328600 0.000019 0.000005 6.046960 2.758930 -65.563900 22.291600 -0.000001 0.000005 19.073100 5.574050 -9.897630 12.994500 -0.242716 -4.980390 92.788900 -6.340090 -66.196000 -5.348130 -0.000001 -0.000004 -58.345400 -52.821600 -111.658000 -24.328900 0.000322 -0.000009 4.971570 3.323390 -56.326200 -22.291500 -0.000108 -0.000004 21.637700 5.517100 -7.238880 -2.192480 -6.469440 -0.000000 -169.437000 -14.567900 -2.880100 39.081100 -0.000007 -0.000012 -0.141345 0.407120 19.146300 40.985400 -0.000006 -0.000013 -5.994740 3.978100 -62.611700 11.754300 -0.000000 0.000003 -0.000029 -0.000353 -16.591400 -2.192510 6.469440 -0.000001 175.880000 19.780300 178.196000 -39.081100 -0.002282 -0.040193 0.039445 -0.106777 18.689800 -40.985400 0.000008 0.000006 -0.030763 0.819571 -63.317300 -11.754300 -0.000006 -0.000006 -0.007434 -0.083349 -19.966600
0.000000 0.000000 0.000000 0.000000 0.000000 -0.000000 -1.420610 92.324800 -1.746940 87.834900 -0.169053 1.955770 15.735700 0.000005 -0.000001 82.375500 87.672300 -81.396400 8.984550 -0.406207 -0.000000 -3.145120 -0.710586 1.939190 16.377300 -0.000001 -0.000001 -5.457940 -3.700630 1.979690 6.456720 -0.000001 -0.000000 -6.330440 -2.643040 -0.533189 12.994200 -0.242716 4.980390 -84.153800 -12.872000 -65.315400 5.348090 -0.000007 -0.000001 -68.860600 -55.349100 -103.128000 24.328600 0.000019 0.000005 6.136960 2.809190 -65.495700 22.291600 -0.000001 0.000005 19.073200 5.575100 -9.952240 12.994500 -0.242716 -4.980390 92.786000 -6.342540 -66.226100 -5.348130 -0.000001 -0.000004 -58.284500 -52.730800 -111.418000 -24.328900 0.000322 -0.000009 5.038720 3.383700 -56.207700 -22.291500 -0.000108 -0.000004 21.654000 5.516460 -7.211630 -2.192480 -6.469440 -0.000000 -169.440000 -14.578800 -2.955530 39.081100 -0.000007 -0.000012 -0.142893 0.410063 19.211800 40.985400 -0.000006 -0.000013 -5.995490 3.933900 -62.658800 11.754300 -0.000000 0.000003 -0.000025 -0.000308 -16.589600 -2.192510 6.469440 -0.000001 175.906000 19.739300 178.147000 -39.081100 -0.002282 -0.040193 0.039906 -0.108254 18.671600 -40.985400 0.000008 0.000006 -0.006786 0.855904 -63.345100 -11.754300 -0.000006 -0.000006 -0.007307 -0.082275 -19.922700
0.000000 0.000000 0.000000 0.000000 0.000000 -0.000000 -1.413290 92.330100 -1.750300 87.804300 -0.210668 1.903010 15.735700 0.000005 -0.000001 82.748800 87.663600 -81.771100 8.984550 -0.406207 -0.000000 -3.124140 -0.682412 1.937160 16.377300 -0.000001 -0.000001 -5.411250 -3.677420 1.934680 6.456720 -0.000001 -0.000000 -6.342220 -2.671200 -0.533800 12.994200 -0.242716 4.980390 -84.145400 -12.864300 -65.271500 5.348090 -0.000007 -0.000001 -69.040300 -55.374400 -103.159000 24.328600 0.000019 0.000005 6.134700 2.806110 -65.511400 22.291600 -0.000001 0.000005 19.118900 5.573720 -9.880320 12.994500 -0.242716 -4.980390 92.778100 -6.314070 -66.191500 -5.348130 -0.000001 -0.000004 -58.200700 -52.719600 -111.256000 -24.328900 0.000322 -0.000009 5.054880 3.414580 -56.052400 -22.291500 -0.000108 -0.000004 21.675100 5.512320 -7.038280 -2.192480 -6.469440 -0.000000 -169.427000 -14.608900 -2.996310 39.081100 -0.000007 -0.000012 -0.143613 0.412338 19.202900 40.985400 -0.000006 -0.000013 -5.998710 3.889300 -62.658600 11.754300 -0.000000 0.000003 -0.000029 -0.000355 -16.591400 -2.192510 6.469440 -0.000001 175.955000 19.702600 178.088000 -39.081100 -0.002282 -0.040193 0.039559 -0.107382 18.646600 -40.985400 0.000008 0.000006 -0.040552 0.853318 -63.281100 -11.754300 -0.000006 -0.000006 -0.007323 -0.082416 -19.928500
0.000000 0.000000 0.000000 0.000000 0.000000 -0.000000 -1.397150 92.331500 -1.742200 87.815200 -0.269821 1.905640 15.735700 0.000005 -0.000001 82.879800 87.641400 -81.917900 8.984550 -0.406207 -0.000000 -3.078980 -0.675439 1.906000 16.377300 -0.000001 -0.000001 -5.343720 -3.656300 1.965980 6.456720 -0.000001 -0.000000 -6.302620 -2.612260 -0.608898 12.994200 -0.242716 4.980390 -84.130000 -12.855200 -65.198700 5.348090 -0.000007 -0.000001 -69.178700 -55.348800 -103.120000 24.328600 0.000019 0.000005 6.138140 2.799210 -65.576700 22.291600 -0.000001 0.000005 19.154400 5.573930 -9.891110 12.994500 -0.242716 -4.980390 92.763700 -6.286100 -66.208400 -5.348130 -0.000001 -0.000004 -58.110900 -52.663600 -111.094000 -24.328900 0.000322 -0.000009 5.008700 3.399560 -55.924300 -22.291500 -0.000108 -0.000004 21.695500 5.513670 -7.094510 -2.192480 -6.469440 -0.000000 -169.450000 -14.627000 -2.971740 39.081100 -0.000007 -0.000012 -0.141987 0.407895 19.193000 40.985400 -0.000006 -0.000013 -5.987750 3.874660 -62.668500 11.754300 -0.000000 0.000003 -0.000026 -0.000320 -16.590100 -2.192510 6.469440 -0.000001 175.931000 19.677500 178.091000 -39.081100 -0.002282 -0.040193 0.039416 -0.106993 18.640800 -40.985400 0.000008 0.000006 -0.024908 0.886015 -63.275400 -11.754300 -0.000006 -0.000006 -0.007337 -0.082532 -19.933300
0.000000 0.000000 0.000000 0.000000 0.000000 -0.000000 -1.380270 92.331000 -1.732100 87.831700 -0.314382 1.889640 15.735700 0.000005 -0.000001 82.970900 87.622300 -82.029500 8.984550 -0.406207 -0.000000 -3.040260 -0.670438 1.865270 16.377300 -0.000001 -0.000001 -5.270050 -3.625200 1.947510 6.456720 -0.000001 -0.000000 -6.306230 -2.590340 -0.590630 12.994200 -0.242716 4.980390 -84.123600 -12.834900 -65.140500 5.348090 -0.000007 -0.000001 -69.250300 -55.330300 -103.002000 24.328600 0.000019 0.000005 6.058080 2.740930 -65.744500 22.291600 -0.000001 0.000005 19.130600 5.572940 -9.839640 12.994500 -0.242716 -4.980390 92.759400 -6.274450 -66.201800 -5.348130 -0.000001 -0.000004 -58.057900 -52.610100 -110.912000 -24.328900 0.000322 -0.000009 4.985060 3.381820 -55.936800 -22.291500 -0.000108 -0.000004 21.654000 5.513770 -7.098870 -2.192480 -6.469440 -0.000000 -169.484000 -14.636400 -2.966390 39.081100 -0.000007 -0.000012 -0.141306 0.405974 19.191500 40.985400 -0.000006 -0.000013 -5.979710 3.841170 -62.688700 11.754300 -0.000000 0.000003 -0.000031 -0.000369 -16.592000 -2.192510 6.469440 -0.000001 175.903000 19.653000 178.080000 -39.081100 -0.002282 -0.040193 0.039944 -0.108589 18.636100 -40.985400 0.000008 0.000006 -0.006113 0.929889 -63.285800 -11.754300 -0.000006 -0.000006 -0.007336 -0.082521 -19.932800
0.000000 0.000000 0.000000 0.000000 0.000000 -0.000000 -1.368910 92.334600 -1.732220 87.812500 -0.308976 1.857230 15.735700 0.000005 -0.000001 83.176600 87.617100 -82.243400 8.984550 -0.406207 -0.000000 -3.028060 -0.653854 1.849360 16.377300 -0.000001 -0.000001 -5.201060 -3.623070 1.941970 6.456720 -0.000001 -0.000000 -6.217700 -2.594550 -0.618509 12.994200 -0.242716 4.980390 -84.122600 -12.837700 -65.141700 5.348090 -0.000007 -0.000001 -69.269300 -55.210200 -102.752000 24.328600 0.000019 0.000005 5.981720 2.679210 -65.957900 22.291600 -0.000001 0.000005 19.034700 5.575310 -9.963260 12.994500 -0.242716 -4.980390 92.730400 -6.206060 -66.194800 -5.348130 -0.000001 -0.000004 -57.759100 -52.665800 -110.552000 -24.328900 0.000322 -0.000009 5.035240 3.402160 -56.045000 -22.291500 -0.000108 -0.000004 21.640500 5.513840 -7.101750 -2.192480 -6.469440 -0.000000 -169.476000 -14.622200 -2.992970 39.081100 -0.000007 -0.000012 -0.142520 0.409740 19.179400 40.985400 -0.000006 -0.000013 -5.982710 3.817110 -62.686400 11.754300 -0.000000 0.000003 -0.000029 -0.000350 -16.591200 -2.192510 6.469440 -0.000001 175.927000 19.675200 178.050000 -39.081100 -0.002282 -0.040193 0.039047 -0.106060 18.614500 -40.985400 0.000008 0.000006 -0.040756 0.926920 -63.240100 -11.754300 -0.000006 -0.000006 -0.007124 -0.080726 -19.859500
0.000000 0.000000 0.000000 0.000000 0.000000 -0.000000 -1.353180 92.328100 -1.717460 87.818900 -0.326070 1.864340 15.735700 0.000005 -0.000001 83.402800 87.592800 -82.481800 8.984550 -0.406207 -0.000000 -2.977870 -0.639205 1.825690 16.377300 -0.000001 -0.000001 -5.140740 -3.596880 1.963220 6.456720 -0.000001 -0.000000 -6.223570 -2.576540 -0.665418 12.994200 -0.242716 4.980390 -84.143100 -12.785400 -65.130700 5.348090 -0.000007 -0.000001 -69.131100 -55.112100 -102.380000 24.328600 0.000019 0.000005 5.860630 2.597280 -66.179600 22.291600 -0.000001 0.000005 18.992400 5.575780 -9.988250 12.994500 -0.242716 -4.980390 92.718500 -6.172530 -66.173500 -5.348130 -0.000001 -0.000004 -57.362200 -52.743300 -110.063000 -24.328900 0.000322 -0.000009 5.003140 3.351340 -56.273200 -22.291500 -0.000108 -0.000004 21.723900 5.512100 -7.028190 -2.192480 -6.469440 -0.000000 -169.494000 -14.622900 -3.005100 39.081100 -0.000007 -0.000012 -0.142281 0.407646 19.240700 40.985400 -0.000006 -0.000013 -5.968970 3.811740 -62.730400 11.754300 -0.000000 0.000003 -0.000032 -0.000381 -16.592400 -2.192510 6.469440 -0.000001 175.903000 19.700700 178.058000 -39.081100 -0.002282 -0.040193 0.040124 -0.109062 18.645900 -40.985400 0.000008 0.000006 0.000047 0.965574 -63.284300 -11.754300 -0.000006 -0.000006 -0.007389 -0.082972 -19.951200
0.000000 0.000000 0.000000 0.000000 0.000000 -0.000000 -1.340550 92.330700 -1.709000 87.833000 -0.302752 1.888050 15.735700 0.000005 -0.000001 83.550900 87.566600 -82.656400 8.984550 -0.406207 -0.000000 -2.924480 -0.629854 1.773150 16.377300 -0.000001 -0.000001 -5.089300 -3.573490 1.976770 6.456720 -0.000001 -0.000000 -6.188590 -2.578680 -0.646615 12.994200 -0.242716 4.980390 -84.155700 -12.742600 -65.106000 5.348090 -0.000007 -0.000001 -68.817400 -54.909900 -101.822000 24.328600 0.000019 0.000005 5.683260 2.486190 -66.448100 22.291600 -0.000001 0.000005 19.052400 5.575050 -9.950190 12.994500 -0.242716 -4.980390 92.644800 -6.003530 -66.171000 -5.348130 -0.000001 -0.000004 -56.635500 -52.916600 -109.366000 -24.328900 0.000322 -0.000009 4.895290 3.247230 -56.527400 -22.291500 -0.000108 -0.000004 21.604300 5.512090 -7.028790 -2.192480 -6.469440 -0.000000 -169.508000 -14.606800 -2.959380 39.081100 -0.000007 -0.000012 -0.143027 0.410578 19.206200 40.985400 -0.000006 -0.000013 -5.966910 3.799300 -62.721700 11.754300 -0.000000 0.000003 -0.000030 -0.000363 -16.591700 -2.192510 6.469440 -0.000001 175.859000 19.715000 178.097000 -39.081100 -0.002282 -0.040193 0.038638 -0.104746 18.631100 -40.985400 0.000008 0.000006 -0.118415 0.971802 -63.245600 -11.754300 -0.000006 -0.000006 -0.007515 -0.084023 -19.994100
